<svg width="25" height="23" viewBox="0 0 25 23" fill="none" xmlns="http://www.w3.org/2000/svg">
<mask id="mask0_1619_433" style="mask-type:luminance" maskUnits="userSpaceOnUse" x="0" y="5" width="19" height="18">
<path d="M12.1308 5.78516H0V16.5745C0.0029692 18.1161 0.673483 19.5939 1.86498 20.6849C3.05647 21.7759 4.67203 22.3914 6.35853 22.3969H18.1737V11.3086C18.1707 9.84459 17.5331 8.44124 16.4005 7.40598C15.2679 6.37067 13.7326 5.78788 12.1308 5.78516Z" fill="white"/>
</mask>
<g mask="url(#mask0_1619_433)">
<path d="M18.1737 5.78516H0V22.3969H18.1737V5.78516Z" fill="#4FD3C8"/>
</g>
<mask id="mask1_1619_433" style="mask-type:luminance" maskUnits="userSpaceOnUse" x="5" y="0" width="20" height="18">
<path d="M17.6194 0H5.41454V11.4756C5.42068 12.9857 6.07969 14.4324 7.24792 15.5002C8.41616 16.568 9.99889 17.1704 11.651 17.1761H24.2056V6.02013C24.2026 4.42437 23.5077 2.89475 22.2732 1.76637C21.0387 0.637985 19.3653 0.00281691 17.6194 0Z" fill="white"/>
</mask>
<g mask="url(#mask1_1619_433)">
<path d="M24.2056 0H5.41454V17.1761H24.2056V0Z" fill="#7AFC7D"/>
</g>
<mask id="mask2_1619_433" style="mask-type:luminance" maskUnits="userSpaceOnUse" x="5" y="5" width="13" height="13">
<path d="M5.41454 5.68994H15.9058C16.4387 5.68994 16.9498 5.88268 17.3278 6.22608C17.7056 6.56943 17.9195 7.0356 17.9225 7.52264V17.1762H7.4312C6.89836 17.1733 6.38844 16.9779 6.01274 16.6325C5.63705 16.2871 5.42618 15.8199 5.42619 15.3328L5.41454 5.68994Z" fill="white"/>
</mask>
<g mask="url(#mask2_1619_433)">
<path d="M17.9692 5.68994H5.41454V17.1762H17.9692V5.68994Z" fill="#61E8DC"/>
</g>
</svg>
